<mxfile host="app.diagrams.net" modified="2024-09-19T13:23:18.504Z" agent="Mozilla/5.0 (Windows NT 10.0; Win64; x64) AppleWebKit/537.36 (KHTML, like Gecko) Chrome/126.0.0.0 Safari/537.36 OPR/112.0.0.0 (Edition std-2)" version="24.6.4" etag="7IXH5elzHIxQuYZ7BNQN" type="github">
  <diagram name="PÃ¡gina-1" id="lQPml9r_2lMebuXAr8gx">
    <mxGraphModel>
      <root>
        <mxCell id="0" />
        <mxCell id="1" parent="0" />
      </root>
    </mxGraphModel>
  </diagram>
</mxfile>
